<svg width="9" height="6" viewBox="0 0 9 6" fill="none" xmlns="http://www.w3.org/2000/svg">
<path id="icon_back" d="M4.42201 3.73497L7.71001 0.714973C7.83509 0.591129 8.004 0.521657 8.18001 0.521657C8.35603 0.521657 8.52494 0.591129 8.65001 0.714973C8.71181 0.775828 8.76089 0.848369 8.79439 0.928371C8.82789 1.00837 8.84515 1.09424 8.84515 1.18097C8.84515 1.26771 8.82789 1.35357 8.79439 1.43358C8.76089 1.51358 8.71181 1.58612 8.65001 1.64697L4.89301 5.32897C4.76764 5.45264 4.59862 5.52197 4.42251 5.52197C4.24641 5.52197 4.07739 5.45264 3.95201 5.32897L0.200015 1.64697C0.138214 1.58612 0.0891351 1.51358 0.055635 1.43358C0.022135 1.35357 0.00488281 1.26771 0.00488281 1.18097C0.00488281 1.09424 0.022135 1.00837 0.055635 0.928371C0.0891351 0.848369 0.138214 0.775828 0.200015 0.714973C0.325093 0.591129 0.493997 0.521657 0.670015 0.521657C0.846032 0.521657 1.01494 0.591129 1.14001 0.714973L4.42201 3.73497Z" fill="black"/>
</svg>
