<svg xmlns="http://www.w3.org/2000/svg" width="40" height="40" fill="none" viewBox="0 0 40 40"><g id="Close"><path id="Rectangle 15" fill="#fff" d="M40 20C40 8.9543 31.0457 0 20 0C8.9543 0 0 8.9543 0 20C0 31.0457 8.9543 40 20 40C31.0457 40 40 31.0457 40 20Z"/><path id="Path 15" fill="#000" d="M14.336 14.336C14.2296 14.4423 14.1452 14.5684 14.0876 14.7073C14.03 14.8462 14.0004 14.9951 14.0004 15.1455C14.0004 15.2959 14.03 15.4448 14.0876 15.5837C14.1452 15.7226 14.2296 15.8488 14.336 15.955L18.382 20.001L14.336 24.043C14.2297 24.1493 14.1454 24.2755 14.0878 24.4144C14.0303 24.5533 14.0007 24.7022 14.0007 24.8525C14.0007 25.0028 14.0303 25.1517 14.0878 25.2906C14.1454 25.4295 14.2297 25.5557 14.336 25.662C14.4423 25.7683 14.5685 25.8526 14.7074 25.9102C14.8463 25.9677 14.9952 25.9973 15.1455 25.9973C15.2958 25.9973 15.4447 25.9677 15.5836 25.9102C15.7225 25.8526 15.8487 25.7683 15.955 25.662L20.001 21.616L24.043 25.665C24.1495 25.7715 24.2759 25.856 24.4151 25.9136C24.5542 25.9713 24.7034 26.0009 24.854 26.0009C25.0046 26.0009 25.1538 25.9713 25.2929 25.9136C25.4321 25.856 25.5585 25.7715 25.665 25.665C25.7715 25.5585 25.856 25.4321 25.9136 25.2929C25.9713 25.1538 26.0009 25.0046 26.0009 24.854C26.0009 24.7034 25.9713 24.5543 25.9136 24.4151C25.856 24.2759 25.7715 24.1495 25.665 24.043L21.619 19.997L25.665 15.951C25.8792 15.7359 25.9991 15.4446 25.9985 15.141C25.9978 14.8375 25.8766 14.5467 25.6615 14.3325C25.4464 14.1183 25.1551 13.9984 24.8515 13.9991C24.548 13.9997 24.2572 14.1209 24.043 14.336L19.997 18.382L15.954 14.336C15.8478 14.2298 15.7216 14.1455 15.5828 14.088C15.444 14.0305 15.2952 14.0009 15.145 14.0009C14.9947 14.0009 14.846 14.0305 14.7072 14.088C14.5684 14.1455 14.4422 14.2298 14.336 14.336Z"/></g></svg>