<svg xmlns="http://www.w3.org/2000/svg" width="40" height="41" fill="none" viewBox="0 0 40 41"><g id="Group 90"><path id="Rectangle 15" fill="#8F00FF" d="M40 20.5C40 9.4543 31.0457 0.5 20 0.5C8.9543 0.5 0 9.4543 0 20.5C0 31.5457 8.9543 40.5 20 40.5C31.0457 40.5 40 31.5457 40 20.5Z"/><path id="Path 21" fill="#fff" d="M20.9 19.785H15.5C15.2613 19.785 15.0324 19.8798 14.8636 20.0486C14.6948 20.2174 14.6 20.4463 14.6 20.685C14.6 20.9237 14.6948 21.1526 14.8636 21.3214C15.0324 21.4902 15.2613 21.585 15.5 21.585H20.9C21.1387 21.585 21.3676 21.4902 21.5364 21.3214C21.7052 21.1526 21.8 20.9237 21.8 20.685C21.8 20.4463 21.7052 20.2174 21.5364 20.0486C21.3676 19.8798 21.1387 19.785 20.9 19.785ZM24.5 16.185H15.5C15.2613 16.185 15.0324 16.2798 14.8636 16.4486C14.6948 16.6174 14.6 16.8463 14.6 17.085C14.6 17.3237 14.6948 17.5526 14.8636 17.7214C15.0324 17.8902 15.2613 17.985 15.5 17.985H24.5C24.7387 17.985 24.9676 17.8902 25.1364 17.7214C25.3052 17.5526 25.4 17.3237 25.4 17.085C25.4 16.8463 25.3052 16.6174 25.1364 16.4486C24.9676 16.2798 24.7387 16.185 24.5 16.185ZM26.3 11.685H13.7C12.9839 11.685 12.2972 11.9695 11.7908 12.4758C11.2845 12.9822 11 13.6689 11 14.385V23.385C11 24.1011 11.2845 24.7878 11.7908 25.2942C12.2972 25.8005 12.9839 26.085 13.7 26.085H24.131L27.461 29.424C27.5451 29.5074 27.6448 29.5734 27.7545 29.6182C27.8641 29.663 27.9816 29.6857 28.1 29.685C28.2181 29.688 28.3352 29.6634 28.442 29.613C28.6064 29.5455 28.7471 29.4308 28.8464 29.2835C28.9457 29.1361 28.9991 28.9627 29 28.785V14.385C29 13.6689 28.7155 12.9822 28.2092 12.4758C27.7028 11.9695 27.0161 11.685 26.3 11.685ZM27.2 26.616L25.139 24.546C25.0549 24.4626 24.9552 24.3966 24.8455 24.3518C24.7359 24.307 24.6184 24.2843 24.5 24.285H13.7C13.4613 24.285 13.2324 24.1902 13.0636 24.0214C12.8948 23.8526 12.8 23.6237 12.8 23.385V14.385C12.8 14.1463 12.8948 13.9174 13.0636 13.7486C13.2324 13.5798 13.4613 13.485 13.7 13.485H26.3C26.5387 13.485 26.7676 13.5798 26.9364 13.7486C27.1052 13.9174 27.2 14.1463 27.2 14.385V26.616Z"/></g></svg>