<svg width="17" height="16" viewBox="0 0 17 16" fill="none" xmlns="http://www.w3.org/2000/svg">
<g id="Group 65">
<path id="Path 11" d="M15.099 5.758V3.439L12.767 2.273L10.499 0.00500488L8.22 0.574005L5.941 0.00500488L3.673 2.273L1.341 3.439V5.758L0.220001 8L1.341 10.242V12.561L3.674 13.727L5.942 15.995L8.22 15.425L10.499 15.994L12.767 13.726L15.1 12.56V10.241L16.22 8L15.099 5.758ZM14.041 9.99201V11.905L12.22 12.818L10.178 14.818L8.22 14.333L6.265 14.822L4.36 12.917L2.398 11.905V9.99201L1.403 8L2.399 6.005V4.093L4.22 3.18101L6.263 1.181L8.22 1.666L10.175 1.177L12.08 3.082L14.042 4.09401V6.005L15.036 7.997L14.041 9.99201Z" fill="black"/>
<path id="Rectangle 19" d="M11.0131 4.46086L4.681 10.793L5.427 11.539L11.7591 5.20686L11.0131 4.46086Z" fill="black"/>
<path id="Path 12" d="M6.102 7.464C6.41509 7.464 6.72114 7.37116 6.98146 7.19722C7.24179 7.02328 7.44468 6.77605 7.5645 6.48679C7.68431 6.19754 7.71566 5.87925 7.65458 5.57218C7.5935 5.26511 7.44273 4.98304 7.22135 4.76166C6.99996 4.54027 6.7179 4.3895 6.41083 4.32842C6.10375 4.26734 5.78546 4.29869 5.49621 4.4185C5.20695 4.53832 4.95972 4.74121 4.78578 5.00154C4.61184 5.26186 4.519 5.56792 4.519 5.88101C4.51953 6.30068 4.68648 6.70301 4.98323 6.99977C5.27999 7.29653 5.68232 7.46348 6.102 7.464ZM6.102 5.35301C6.20643 5.35301 6.30851 5.38397 6.39534 5.44199C6.48217 5.50001 6.54984 5.58247 6.58981 5.67895C6.62977 5.77543 6.64022 5.88159 6.61985 5.98401C6.59948 6.08643 6.54919 6.18052 6.47535 6.25436C6.40151 6.3282 6.30743 6.37849 6.205 6.39886C6.10258 6.41923 5.99642 6.40878 5.89994 6.36881C5.80346 6.32885 5.721 6.26118 5.66298 6.17435C5.60496 6.08752 5.574 5.98543 5.574 5.88101C5.574 5.74097 5.62963 5.60667 5.72864 5.50765C5.82766 5.40863 5.96196 5.35301 6.102 5.35301Z" fill="black"/>
<path id="Path 13" d="M10.338 8.535C10.0249 8.535 9.71886 8.62785 9.45854 8.80179C9.19822 8.97573 8.99532 9.22296 8.8755 9.51222C8.75569 9.80147 8.72434 10.1198 8.78542 10.4268C8.8465 10.7339 8.99727 11.016 9.21866 11.2374C9.44004 11.4587 9.72211 11.6095 10.0292 11.6706C10.3362 11.7317 10.6545 11.7003 10.9438 11.5805C11.233 11.4607 11.4803 11.2578 11.6542 10.9975C11.8282 10.7371 11.921 10.4311 11.921 10.118C11.9205 9.69833 11.7535 9.29599 11.4568 8.99924C11.16 8.70248 10.7577 8.53553 10.338 8.535ZM10.338 10.646C10.2336 10.646 10.1315 10.615 10.0447 10.557C9.95784 10.499 9.89016 10.4165 9.8502 10.3201C9.81023 10.2236 9.79978 10.1174 9.82015 10.015C9.84052 9.91257 9.89081 9.81849 9.96465 9.74465C10.0385 9.67081 10.1326 9.62052 10.235 9.60015C10.3374 9.57978 10.4436 9.59023 10.5401 9.6302C10.6365 9.67016 10.719 9.73783 10.777 9.82466C10.835 9.91149 10.866 10.0136 10.866 10.118C10.866 10.258 10.8104 10.3923 10.7114 10.4914C10.6123 10.5904 10.478 10.646 10.338 10.646Z" fill="black"/>
</g>
</svg>
