<svg width="19" height="24" viewBox="0 0 19 24" fill="none" xmlns="http://www.w3.org/2000/svg">
<g id="ic_pin">
<path id="Oval" d="M9.227 24C8.276 24 3.758 18.415 2.651 16.618C1 13.932 0 12.31 0 9.22701C0 6.77973 0.97218 4.43268 2.70267 2.70218C4.43316 0.971692 6.78021 -0.000488281 9.2275 -0.000488281C11.6748 -0.000488281 14.0218 0.971692 15.7523 2.70218C17.4828 4.43268 18.455 6.77973 18.455 9.22701C18.455 12.186 17.469 13.784 15.836 16.433L15.723 16.617C14.582 18.466 10.16 24 9.227 24ZM9.227 4.61401C8.31444 4.61401 7.42237 4.88462 6.6636 5.39161C5.90483 5.8986 5.31344 6.61921 4.96422 7.46231C4.615 8.30541 4.52362 9.23313 4.70166 10.1282C4.87969 11.0232 5.31913 11.8453 5.96441 12.4906C6.60969 13.1359 7.43182 13.5753 8.32685 13.7534C9.22188 13.9314 10.1496 13.84 10.9927 13.4908C11.8358 13.1416 12.5564 12.5502 13.0634 11.7914C13.5704 11.0326 13.841 10.1406 13.841 9.22801C13.8397 8.00471 13.3531 6.83189 12.4881 5.96688C11.6231 5.10188 10.4503 4.61534 9.227 4.61401Z" fill="#F52D56"/>
</g>
</svg>
