<svg xmlns="http://www.w3.org/2000/svg" width="19" height="18" fill="none" viewBox="0 0 19 18"><g id="Layer 2"><g id="plus-circle"><path id="Path 14" fill="#CACACA" d="M9.25 2C7.86553 2 6.51216 2.41054 5.36101 3.17971C4.20987 3.94888 3.31266 5.04213 2.78285 6.32122C2.25303 7.6003 2.11441 9.00776 2.38451 10.3656C2.6546 11.7235 3.32129 12.9708 4.30026 13.9497C5.27922 14.9287 6.5265 15.5954 7.88437 15.8655C9.24224 16.1356 10.6497 15.997 11.9288 15.4672C13.2079 14.9373 14.3011 14.0401 15.0703 12.889C15.8395 11.7378 16.25 10.3845 16.25 9C16.25 7.14348 15.5125 5.36301 14.1997 4.05025C12.887 2.7375 11.1065 2 9.25 2ZM11.35 9.7H9.95V11.1C9.95 11.2857 9.87625 11.4637 9.74498 11.595C9.6137 11.7262 9.43565 11.8 9.25 11.8C9.06435 11.8 8.8863 11.7262 8.75503 11.595C8.62375 11.4637 8.55 11.2857 8.55 11.1V9.7H7.15C6.96435 9.7 6.7863 9.62625 6.65503 9.49498C6.52375 9.3637 6.45 9.18565 6.45 9C6.45 8.81435 6.52375 8.6363 6.65503 8.50502C6.7863 8.37375 6.96435 8.3 7.15 8.3H8.55V6.9C8.55 6.71435 8.62375 6.5363 8.75503 6.40503C8.8863 6.27375 9.06435 6.2 9.25 6.2C9.43565 6.2 9.6137 6.27375 9.74498 6.40503C9.87625 6.5363 9.95 6.71435 9.95 6.9V8.3H11.35C11.5357 8.3 11.7137 8.37375 11.845 8.50502C11.9763 8.6363 12.05 8.81435 12.05 9C12.05 9.18565 11.9763 9.3637 11.845 9.49498C11.7137 9.62625 11.5357 9.7 11.35 9.7Z"/></g></g></svg>